# Tiled2Unity generated file. Do not modify by hand.
# Wavefront file for 'mapa32x32_mesh_0001.obj'

# Vertices (Count = 960)
v 0 -1 0
v -1 -1 0
v -1 0 0
v 0 0 0
v -1 -1 0
v -2 -1 0
v -2 0 0
v -1 0 0
v -2 -1 0
v -3 -1 0
v -3 0 0
v -2 0 0
v -3 -1 0
v -4 -1 0
v -4 0 0
v -3 0 0
v -4 -1 0
v -5 -1 0
v -5 0 0
v -4 0 0
v -5 -1 0
v -6 -1 0
v -6 0 0
v -5 0 0
v -6 -1 0
v -7 -1 0
v -7 0 0
v -6 0 0
v -7 -1 0
v -8 -1 0
v -8 0 0
v -7 0 0
v -8 -1 0
v -9 -1 0
v -9 0 0
v -8 0 0
v -9 -1 0
v -10 -1 0
v -10 0 0
v -9 0 0
v -10 -1 0
v -11 -1 0
v -11 0 0
v -10 0 0
v -11 -1 0
v -12 -1 0
v -12 0 0
v -11 0 0
v -12 -1 0
v -13 -1 0
v -13 0 0
v -12 0 0
v -13 -1 0
v -14 -1 0
v -14 0 0
v -13 0 0
v -18 -1 0
v -19 -1 0
v -19 0 0
v -18 0 0
v -19 -1 0
v -20 -1 0
v -20 0 0
v -19 0 0
v -20 -1 0
v -21 -1 0
v -21 0 0
v -20 0 0
v -21 -1 0
v -22 -1 0
v -22 0 0
v -21 0 0
v -22 -1 0
v -23 -1 0
v -23 0 0
v -22 0 0
v -23 -1 0
v -24 -1 0
v -24 0 0
v -23 0 0
v -24 -1 0
v -25 -1 0
v -25 0 0
v -24 0 0
v -25 -1 0
v -26 -1 0
v -26 0 0
v -25 0 0
v -26 -1 0
v -27 -1 0
v -27 0 0
v -26 0 0
v -27 -1 0
v -28 -1 0
v -28 0 0
v -27 0 0
v -28 -1 0
v -29 -1 0
v -29 0 0
v -28 0 0
v -29 -1 0
v -30 -1 0
v -30 0 0
v -29 0 0
v -30 -1 0
v -31 -1 0
v -31 0 0
v -30 0 0
v -31 -1 0
v -32 -1 0
v -32 0 0
v -31 0 0
v 0 -2 0
v -1 -2 0
v -1 -1 0
v 0 -1 0
v -1 -2 0
v -2 -2 0
v -2 -1 0
v -1 -1 0
v -2 -2 0
v -3 -2 0
v -3 -1 0
v -2 -1 0
v -3 -2 0
v -4 -2 0
v -4 -1 0
v -3 -1 0
v -4 -2 0
v -5 -2 0
v -5 -1 0
v -4 -1 0
v -5 -2 0
v -6 -2 0
v -6 -1 0
v -5 -1 0
v -6 -2 0
v -7 -2 0
v -7 -1 0
v -6 -1 0
v -7 -2 0
v -8 -2 0
v -8 -1 0
v -7 -1 0
v -8 -2 0
v -9 -2 0
v -9 -1 0
v -8 -1 0
v -9 -2 0
v -10 -2 0
v -10 -1 0
v -9 -1 0
v -10 -2 0
v -11 -2 0
v -11 -1 0
v -10 -1 0
v -11 -2 0
v -12 -2 0
v -12 -1 0
v -11 -1 0
v -12 -2 0
v -13 -2 0
v -13 -1 0
v -12 -1 0
v -19 -2 0
v -20 -2 0
v -20 -1 0
v -19 -1 0
v -20 -2 0
v -21 -2 0
v -21 -1 0
v -20 -1 0
v -21 -2 0
v -22 -2 0
v -22 -1 0
v -21 -1 0
v -22 -2 0
v -23 -2 0
v -23 -1 0
v -22 -1 0
v -23 -2 0
v -24 -2 0
v -24 -1 0
v -23 -1 0
v -24 -2 0
v -25 -2 0
v -25 -1 0
v -24 -1 0
v -25 -2 0
v -26 -2 0
v -26 -1 0
v -25 -1 0
v -26 -2 0
v -27 -2 0
v -27 -1 0
v -26 -1 0
v -27 -2 0
v -28 -2 0
v -28 -1 0
v -27 -1 0
v -28 -2 0
v -29 -2 0
v -29 -1 0
v -28 -1 0
v -29 -2 0
v -30 -2 0
v -30 -1 0
v -29 -1 0
v -30 -2 0
v -31 -2 0
v -31 -1 0
v -30 -1 0
v -31 -2 0
v -32 -2 0
v -32 -1 0
v -31 -1 0
v 0 -3 0
v -1 -3 0
v -1 -2 0
v 0 -2 0
v -1 -3 0
v -2 -3 0
v -2 -2 0
v -1 -2 0
v -2 -3 0
v -3 -3 0
v -3 -2 0
v -2 -2 0
v -3 -3 0
v -4 -3 0
v -4 -2 0
v -3 -2 0
v -4 -3 0
v -5 -3 0
v -5 -2 0
v -4 -2 0
v -5 -3 0
v -6 -3 0
v -6 -2 0
v -5 -2 0
v -6 -3 0
v -7 -3 0
v -7 -2 0
v -6 -2 0
v -7 -3 0
v -8 -3 0
v -8 -2 0
v -7 -2 0
v -8 -3 0
v -9 -3 0
v -9 -2 0
v -8 -2 0
v -9 -3 0
v -10 -3 0
v -10 -2 0
v -9 -2 0
v -10 -3 0
v -11 -3 0
v -11 -2 0
v -10 -2 0
v -11 -3 0
v -12 -3 0
v -12 -2 0
v -11 -2 0
v -12 -3 0
v -13 -3 0
v -13 -2 0
v -12 -2 0
v -19 -3 0
v -20 -3 0
v -20 -2 0
v -19 -2 0
v -20 -3 0
v -21 -3 0
v -21 -2 0
v -20 -2 0
v -21 -3 0
v -22 -3 0
v -22 -2 0
v -21 -2 0
v -22 -3 0
v -23 -3 0
v -23 -2 0
v -22 -2 0
v -23 -3 0
v -24 -3 0
v -24 -2 0
v -23 -2 0
v -24 -3 0
v -25 -3 0
v -25 -2 0
v -24 -2 0
v -25 -3 0
v -26 -3 0
v -26 -2 0
v -25 -2 0
v -26 -3 0
v -27 -3 0
v -27 -2 0
v -26 -2 0
v -27 -3 0
v -28 -3 0
v -28 -2 0
v -27 -2 0
v -28 -3 0
v -29 -3 0
v -29 -2 0
v -28 -2 0
v -29 -3 0
v -30 -3 0
v -30 -2 0
v -29 -2 0
v -30 -3 0
v -31 -3 0
v -31 -2 0
v -30 -2 0
v -31 -3 0
v -32 -3 0
v -32 -2 0
v -31 -2 0
v 0 -4 0
v -1 -4 0
v -1 -3 0
v 0 -3 0
v -1 -4 0
v -2 -4 0
v -2 -3 0
v -1 -3 0
v -30 -4 0
v -31 -4 0
v -31 -3 0
v -30 -3 0
v -31 -4 0
v -32 -4 0
v -32 -3 0
v -31 -3 0
v 0 -5 0
v -1 -5 0
v -1 -4 0
v 0 -4 0
v -1 -5 0
v -2 -5 0
v -2 -4 0
v -1 -4 0
v -30 -5 0
v -31 -5 0
v -31 -4 0
v -30 -4 0
v -31 -5 0
v -32 -5 0
v -32 -4 0
v -31 -4 0
v 0 -6 0
v -1 -6 0
v -1 -5 0
v 0 -5 0
v -1 -6 0
v -2 -6 0
v -2 -5 0
v -1 -5 0
v -30 -6 0
v -31 -6 0
v -31 -5 0
v -30 -5 0
v -31 -6 0
v -32 -6 0
v -32 -5 0
v -31 -5 0
v 0 -7 0
v -1 -7 0
v -1 -6 0
v 0 -6 0
v -1 -7 0
v -2 -7 0
v -2 -6 0
v -1 -6 0
v -30 -7 0
v -31 -7 0
v -31 -6 0
v -30 -6 0
v -31 -7 0
v -32 -7 0
v -32 -6 0
v -31 -6 0
v 0 -8 0
v -1 -8 0
v -1 -7 0
v 0 -7 0
v -1 -8 0
v -2 -8 0
v -2 -7 0
v -1 -7 0
v -30 -8 0
v -31 -8 0
v -31 -7 0
v -30 -7 0
v -31 -8 0
v -32 -8 0
v -32 -7 0
v -31 -7 0
v 0 -9 0
v -1 -9 0
v -1 -8 0
v 0 -8 0
v -1 -9 0
v -2 -9 0
v -2 -8 0
v -1 -8 0
v -30 -9 0
v -31 -9 0
v -31 -8 0
v -30 -8 0
v -31 -9 0
v -32 -9 0
v -32 -8 0
v -31 -8 0
v 0 -10 0
v -1 -10 0
v -1 -9 0
v 0 -9 0
v -1 -10 0
v -2 -10 0
v -2 -9 0
v -1 -9 0
v -30 -10 0
v -31 -10 0
v -31 -9 0
v -30 -9 0
v -31 -10 0
v -32 -10 0
v -32 -9 0
v -31 -9 0
v 0 -11 0
v -1 -11 0
v -1 -10 0
v 0 -10 0
v -1 -11 0
v -2 -11 0
v -2 -10 0
v -1 -10 0
v -30 -11 0
v -31 -11 0
v -31 -10 0
v -30 -10 0
v -31 -11 0
v -32 -11 0
v -32 -10 0
v -31 -10 0
v 0 -12 0
v -1 -12 0
v -1 -11 0
v 0 -11 0
v -1 -12 0
v -2 -12 0
v -2 -11 0
v -1 -11 0
v -30 -12 0
v -31 -12 0
v -31 -11 0
v -30 -11 0
v -31 -12 0
v -32 -12 0
v -32 -11 0
v -31 -11 0
v 0 -19 0
v -1 -19 0
v -1 -18 0
v 0 -18 0
v -1 -19 0
v -2 -19 0
v -2 -18 0
v -1 -18 0
v -30 -19 0
v -31 -19 0
v -31 -18 0
v -30 -18 0
v -31 -19 0
v -32 -19 0
v -32 -18 0
v -31 -18 0
v 0 -20 0
v -1 -20 0
v -1 -19 0
v 0 -19 0
v -1 -20 0
v -2 -20 0
v -2 -19 0
v -1 -19 0
v -30 -20 0
v -31 -20 0
v -31 -19 0
v -30 -19 0
v -31 -20 0
v -32 -20 0
v -32 -19 0
v -31 -19 0
v 0 -21 0
v -1 -21 0
v -1 -20 0
v 0 -20 0
v -1 -21 0
v -2 -21 0
v -2 -20 0
v -1 -20 0
v -30 -21 0
v -31 -21 0
v -31 -20 0
v -30 -20 0
v -31 -21 0
v -32 -21 0
v -32 -20 0
v -31 -20 0
v 0 -22 0
v -1 -22 0
v -1 -21 0
v 0 -21 0
v -1 -22 0
v -2 -22 0
v -2 -21 0
v -1 -21 0
v -30 -22 0
v -31 -22 0
v -31 -21 0
v -30 -21 0
v -31 -22 0
v -32 -22 0
v -32 -21 0
v -31 -21 0
v 0 -23 0
v -1 -23 0
v -1 -22 0
v 0 -22 0
v -1 -23 0
v -2 -23 0
v -2 -22 0
v -1 -22 0
v -30 -23 0
v -31 -23 0
v -31 -22 0
v -30 -22 0
v -31 -23 0
v -32 -23 0
v -32 -22 0
v -31 -22 0
v 0 -24 0
v -1 -24 0
v -1 -23 0
v 0 -23 0
v -1 -24 0
v -2 -24 0
v -2 -23 0
v -1 -23 0
v -30 -24 0
v -31 -24 0
v -31 -23 0
v -30 -23 0
v -31 -24 0
v -32 -24 0
v -32 -23 0
v -31 -23 0
v 0 -25 0
v -1 -25 0
v -1 -24 0
v 0 -24 0
v -1 -25 0
v -2 -25 0
v -2 -24 0
v -1 -24 0
v -30 -25 0
v -31 -25 0
v -31 -24 0
v -30 -24 0
v -31 -25 0
v -32 -25 0
v -32 -24 0
v -31 -24 0
v 0 -26 0
v -1 -26 0
v -1 -25 0
v 0 -25 0
v -1 -26 0
v -2 -26 0
v -2 -25 0
v -1 -25 0
v -30 -26 0
v -31 -26 0
v -31 -25 0
v -30 -25 0
v -31 -26 0
v -32 -26 0
v -32 -25 0
v -31 -25 0
v 0 -27 0
v -1 -27 0
v -1 -26 0
v 0 -26 0
v -1 -27 0
v -2 -27 0
v -2 -26 0
v -1 -26 0
v -30 -27 0
v -31 -27 0
v -31 -26 0
v -30 -26 0
v -31 -27 0
v -32 -27 0
v -32 -26 0
v -31 -26 0
v 0 -28 0
v -1 -28 0
v -1 -27 0
v 0 -27 0
v -1 -28 0
v -2 -28 0
v -2 -27 0
v -1 -27 0
v -30 -28 0
v -31 -28 0
v -31 -27 0
v -30 -27 0
v -31 -28 0
v -32 -28 0
v -32 -27 0
v -31 -27 0
v 0 -29 0
v -1 -29 0
v -1 -28 0
v 0 -28 0
v -1 -29 0
v -2 -29 0
v -2 -28 0
v -1 -28 0
v -30 -29 0
v -31 -29 0
v -31 -28 0
v -30 -28 0
v -31 -29 0
v -32 -29 0
v -32 -28 0
v -31 -28 0
v 0 -30 0
v -1 -30 0
v -1 -29 0
v 0 -29 0
v -1 -30 0
v -2 -30 0
v -2 -29 0
v -1 -29 0
v -2 -30 0
v -3 -30 0
v -3 -29 0
v -2 -29 0
v -3 -30 0
v -4 -30 0
v -4 -29 0
v -3 -29 0
v -4 -30 0
v -5 -30 0
v -5 -29 0
v -4 -29 0
v -5 -30 0
v -6 -30 0
v -6 -29 0
v -5 -29 0
v -6 -30 0
v -7 -30 0
v -7 -29 0
v -6 -29 0
v -7 -30 0
v -8 -30 0
v -8 -29 0
v -7 -29 0
v -8 -30 0
v -9 -30 0
v -9 -29 0
v -8 -29 0
v -9 -30 0
v -10 -30 0
v -10 -29 0
v -9 -29 0
v -10 -30 0
v -11 -30 0
v -11 -29 0
v -10 -29 0
v -11 -30 0
v -12 -30 0
v -12 -29 0
v -11 -29 0
v -12 -30 0
v -13 -30 0
v -13 -29 0
v -12 -29 0
v -13 -30 0
v -14 -30 0
v -14 -29 0
v -13 -29 0
v -18 -30 0
v -19 -30 0
v -19 -29 0
v -18 -29 0
v -19 -30 0
v -20 -30 0
v -20 -29 0
v -19 -29 0
v -20 -30 0
v -21 -30 0
v -21 -29 0
v -20 -29 0
v -21 -30 0
v -22 -30 0
v -22 -29 0
v -21 -29 0
v -22 -30 0
v -23 -30 0
v -23 -29 0
v -22 -29 0
v -23 -30 0
v -24 -30 0
v -24 -29 0
v -23 -29 0
v -24 -30 0
v -25 -30 0
v -25 -29 0
v -24 -29 0
v -25 -30 0
v -26 -30 0
v -26 -29 0
v -25 -29 0
v -26 -30 0
v -27 -30 0
v -27 -29 0
v -26 -29 0
v -27 -30 0
v -28 -30 0
v -28 -29 0
v -27 -29 0
v -28 -30 0
v -29 -30 0
v -29 -29 0
v -28 -29 0
v -29 -30 0
v -30 -30 0
v -30 -29 0
v -29 -29 0
v -30 -30 0
v -31 -30 0
v -31 -29 0
v -30 -29 0
v -31 -30 0
v -32 -30 0
v -32 -29 0
v -31 -29 0
v 0 -31 0
v -1 -31 0
v -1 -30 0
v 0 -30 0
v -1 -31 0
v -2 -31 0
v -2 -30 0
v -1 -30 0
v -2 -31 0
v -3 -31 0
v -3 -30 0
v -2 -30 0
v -3 -31 0
v -4 -31 0
v -4 -30 0
v -3 -30 0
v -4 -31 0
v -5 -31 0
v -5 -30 0
v -4 -30 0
v -5 -31 0
v -6 -31 0
v -6 -30 0
v -5 -30 0
v -6 -31 0
v -7 -31 0
v -7 -30 0
v -6 -30 0
v -7 -31 0
v -8 -31 0
v -8 -30 0
v -7 -30 0
v -8 -31 0
v -9 -31 0
v -9 -30 0
v -8 -30 0
v -9 -31 0
v -10 -31 0
v -10 -30 0
v -9 -30 0
v -10 -31 0
v -11 -31 0
v -11 -30 0
v -10 -30 0
v -11 -31 0
v -12 -31 0
v -12 -30 0
v -11 -30 0
v -12 -31 0
v -13 -31 0
v -13 -30 0
v -12 -30 0
v -19 -31 0
v -20 -31 0
v -20 -30 0
v -19 -30 0
v -20 -31 0
v -21 -31 0
v -21 -30 0
v -20 -30 0
v -21 -31 0
v -22 -31 0
v -22 -30 0
v -21 -30 0
v -22 -31 0
v -23 -31 0
v -23 -30 0
v -22 -30 0
v -23 -31 0
v -24 -31 0
v -24 -30 0
v -23 -30 0
v -24 -31 0
v -25 -31 0
v -25 -30 0
v -24 -30 0
v -25 -31 0
v -26 -31 0
v -26 -30 0
v -25 -30 0
v -26 -31 0
v -27 -31 0
v -27 -30 0
v -26 -30 0
v -27 -31 0
v -28 -31 0
v -28 -30 0
v -27 -30 0
v -28 -31 0
v -29 -31 0
v -29 -30 0
v -28 -30 0
v -29 -31 0
v -30 -31 0
v -30 -30 0
v -29 -30 0
v -30 -31 0
v -31 -31 0
v -31 -30 0
v -30 -30 0
v -31 -31 0
v -32 -31 0
v -32 -30 0
v -31 -30 0
v 0 -32 0
v -1 -32 0
v -1 -31 0
v 0 -31 0
v -1 -32 0
v -2 -32 0
v -2 -31 0
v -1 -31 0
v -2 -32 0
v -3 -32 0
v -3 -31 0
v -2 -31 0
v -3 -32 0
v -4 -32 0
v -4 -31 0
v -3 -31 0
v -4 -32 0
v -5 -32 0
v -5 -31 0
v -4 -31 0
v -5 -32 0
v -6 -32 0
v -6 -31 0
v -5 -31 0
v -6 -32 0
v -7 -32 0
v -7 -31 0
v -6 -31 0
v -7 -32 0
v -8 -32 0
v -8 -31 0
v -7 -31 0
v -8 -32 0
v -9 -32 0
v -9 -31 0
v -8 -31 0
v -9 -32 0
v -10 -32 0
v -10 -31 0
v -9 -31 0
v -10 -32 0
v -11 -32 0
v -11 -31 0
v -10 -31 0
v -11 -32 0
v -12 -32 0
v -12 -31 0
v -11 -31 0
v -12 -32 0
v -13 -32 0
v -13 -31 0
v -12 -31 0
v -19 -32 0
v -20 -32 0
v -20 -31 0
v -19 -31 0
v -20 -32 0
v -21 -32 0
v -21 -31 0
v -20 -31 0
v -21 -32 0
v -22 -32 0
v -22 -31 0
v -21 -31 0
v -22 -32 0
v -23 -32 0
v -23 -31 0
v -22 -31 0
v -23 -32 0
v -24 -32 0
v -24 -31 0
v -23 -31 0
v -24 -32 0
v -25 -32 0
v -25 -31 0
v -24 -31 0
v -25 -32 0
v -26 -32 0
v -26 -31 0
v -25 -31 0
v -26 -32 0
v -27 -32 0
v -27 -31 0
v -26 -31 0
v -27 -32 0
v -28 -32 0
v -28 -31 0
v -27 -31 0
v -28 -32 0
v -29 -32 0
v -29 -31 0
v -28 -31 0
v -29 -32 0
v -30 -32 0
v -30 -31 0
v -29 -31 0
v -30 -32 0
v -31 -32 0
v -31 -31 0
v -30 -31 0
v -31 -32 0
v -32 -32 0
v -32 -31 0
v -31 -31 0

# Texture cooridinates (Count = 68)
vt 0 0.6666666
vt 0.0625 0.6666666
vt 0.0625 1
vt 0 1
vt 0.125 0.6666666
vt 0.125 1
vt 0.1875 0.6666666
vt 0.1875 1
vt 0.25 0.6666666
vt 0.25 1
vt 0.3125 0.6666666
vt 0.3125 1
vt 0.375 0.6666666
vt 0.375 1
vt 0.4375 0.6666666
vt 0.4375 1
vt 0.5 0.6666666
vt 0.5 1
vt 0.5625 0.6666666
vt 0.5625 1
vt 0.625 0.6666666
vt 0.625 1
vt 0.6875 0.6666666
vt 0.6875 1
vt 0.75 0.6666666
vt 0.75 1
vt 0.8125 0.6666666
vt 0.8125 1
vt 0.875 0.6666666
vt 0.875 1
vt 0.9375 0.6666666
vt 0.9375 1
vt 1 0.6666666
vt 1 1
vt 0.125 0.3333333
vt 0.1875 0.3333333
vt 0.25 0.3333333
vt 0.3125 0.3333333
vt 0.375 0.3333333
vt 0.4375 0.3333333
vt 0.5 0.3333333
vt 0.5625 0.3333333
vt 0.625 0.3333333
vt 0.6875 0.3333333
vt 0.75 0.3333333
vt 0.8125 0.3333333
vt 0.875 0.3333333
vt 0.125 0
vt 0.1875 0
vt 0.25 0
vt 0.3125 0
vt 0.375 0
vt 0.4375 0
vt 0.5 0
vt 0.5625 0
vt 0.625 0
vt 0.6875 0
vt 0.75 0
vt 0.8125 0
vt 0.875 0
vt 0 0.3333333
vt 0.0625 0.3333333
vt 0.9375 0.3333333
vt 1 0.3333333
vt 0 0
vt 0.0625 0
vt 0.9375 0
vt 1 0

# Normal
vn 0 0 -1

# Mesh description
g mapa32x32_mesh_0001

# Faces
f 1/1/1 2/2/1 3/3/1 4/4/1
f 5/2/1 6/5/1 7/6/1 8/3/1
f 9/5/1 10/7/1 11/8/1 12/6/1
f 13/7/1 14/9/1 15/10/1 16/8/1
f 17/9/1 18/11/1 19/12/1 20/10/1
f 21/11/1 22/13/1 23/14/1 24/12/1
f 25/13/1 26/15/1 27/16/1 28/14/1
f 29/15/1 30/17/1 31/18/1 32/16/1
f 33/17/1 34/19/1 35/20/1 36/18/1
f 37/19/1 38/21/1 39/22/1 40/20/1
f 41/21/1 42/23/1 43/24/1 44/22/1
f 45/23/1 46/25/1 47/26/1 48/24/1
f 49/25/1 50/27/1 51/28/1 52/26/1
f 53/27/1 54/29/1 55/30/1 56/28/1
f 57/5/1 58/7/1 59/8/1 60/6/1
f 61/7/1 62/9/1 63/10/1 64/8/1
f 65/9/1 66/11/1 67/12/1 68/10/1
f 69/11/1 70/13/1 71/14/1 72/12/1
f 73/13/1 74/15/1 75/16/1 76/14/1
f 77/15/1 78/17/1 79/18/1 80/16/1
f 81/17/1 82/19/1 83/20/1 84/18/1
f 85/19/1 86/21/1 87/22/1 88/20/1
f 89/21/1 90/23/1 91/24/1 92/22/1
f 93/23/1 94/25/1 95/26/1 96/24/1
f 97/25/1 98/27/1 99/28/1 100/26/1
f 101/27/1 102/29/1 103/30/1 104/28/1
f 105/29/1 106/31/1 107/32/1 108/30/1
f 109/31/1 110/33/1 111/34/1 112/32/1
f 113/29/1 114/31/1 115/32/1 116/30/1
f 117/31/1 118/33/1 119/34/1 120/32/1
f 121/35/1 122/36/1 123/7/1 124/5/1
f 125/36/1 126/37/1 127/9/1 128/7/1
f 129/37/1 130/38/1 131/11/1 132/9/1
f 133/38/1 134/39/1 135/13/1 136/11/1
f 137/39/1 138/40/1 139/15/1 140/13/1
f 141/40/1 142/41/1 143/17/1 144/15/1
f 145/41/1 146/42/1 147/19/1 148/17/1
f 149/42/1 150/43/1 151/21/1 152/19/1
f 153/43/1 154/44/1 155/23/1 156/21/1
f 157/44/1 158/45/1 159/25/1 160/23/1
f 161/45/1 162/46/1 163/27/1 164/25/1
f 165/36/1 166/37/1 167/9/1 168/7/1
f 169/37/1 170/38/1 171/11/1 172/9/1
f 173/38/1 174/39/1 175/13/1 176/11/1
f 177/39/1 178/40/1 179/15/1 180/13/1
f 181/40/1 182/41/1 183/17/1 184/15/1
f 185/41/1 186/42/1 187/19/1 188/17/1
f 189/42/1 190/43/1 191/21/1 192/19/1
f 193/43/1 194/44/1 195/23/1 196/21/1
f 197/44/1 198/45/1 199/25/1 200/23/1
f 201/45/1 202/46/1 203/27/1 204/25/1
f 205/46/1 206/47/1 207/29/1 208/27/1
f 209/29/1 210/31/1 211/32/1 212/30/1
f 213/31/1 214/33/1 215/34/1 216/32/1
f 217/29/1 218/31/1 219/32/1 220/30/1
f 221/31/1 222/33/1 223/34/1 224/32/1
f 225/48/1 226/49/1 227/36/1 228/35/1
f 229/49/1 230/50/1 231/37/1 232/36/1
f 233/50/1 234/51/1 235/38/1 236/37/1
f 237/51/1 238/52/1 239/39/1 240/38/1
f 241/52/1 242/53/1 243/40/1 244/39/1
f 245/53/1 246/54/1 247/41/1 248/40/1
f 249/54/1 250/55/1 251/42/1 252/41/1
f 253/55/1 254/56/1 255/43/1 256/42/1
f 257/56/1 258/57/1 259/44/1 260/43/1
f 261/57/1 262/58/1 263/45/1 264/44/1
f 265/58/1 266/59/1 267/46/1 268/45/1
f 269/49/1 270/50/1 271/37/1 272/36/1
f 273/50/1 274/51/1 275/38/1 276/37/1
f 277/51/1 278/52/1 279/39/1 280/38/1
f 281/52/1 282/53/1 283/40/1 284/39/1
f 285/53/1 286/54/1 287/41/1 288/40/1
f 289/54/1 290/55/1 291/42/1 292/41/1
f 293/55/1 294/56/1 295/43/1 296/42/1
f 297/56/1 298/57/1 299/44/1 300/43/1
f 301/57/1 302/58/1 303/45/1 304/44/1
f 305/58/1 306/59/1 307/46/1 308/45/1
f 309/59/1 310/60/1 311/47/1 312/46/1
f 313/29/1 314/31/1 315/32/1 316/30/1
f 317/31/1 318/33/1 319/34/1 320/32/1
f 321/31/1 322/33/1 323/34/1 324/32/1
f 325/31/1 326/33/1 327/34/1 328/32/1
f 329/29/1 330/31/1 331/32/1 332/30/1
f 333/31/1 334/33/1 335/34/1 336/32/1
f 337/29/1 338/31/1 339/32/1 340/30/1
f 341/31/1 342/33/1 343/34/1 344/32/1
f 345/29/1 346/31/1 347/32/1 348/30/1
f 349/31/1 350/33/1 351/34/1 352/32/1
f 353/29/1 354/31/1 355/32/1 356/30/1
f 357/31/1 358/33/1 359/34/1 360/32/1
f 361/29/1 362/31/1 363/32/1 364/30/1
f 365/31/1 366/33/1 367/34/1 368/32/1
f 369/29/1 370/31/1 371/32/1 372/30/1
f 373/31/1 374/33/1 375/34/1 376/32/1
f 377/29/1 378/31/1 379/32/1 380/30/1
f 381/31/1 382/33/1 383/34/1 384/32/1
f 385/29/1 386/31/1 387/32/1 388/30/1
f 389/31/1 390/33/1 391/34/1 392/32/1
f 393/29/1 394/31/1 395/32/1 396/30/1
f 397/31/1 398/33/1 399/34/1 400/32/1
f 401/29/1 402/31/1 403/32/1 404/30/1
f 405/31/1 406/33/1 407/34/1 408/32/1
f 409/29/1 410/31/1 411/32/1 412/30/1
f 413/31/1 414/33/1 415/34/1 416/32/1
f 417/1/1 418/2/1 419/3/1 420/4/1
f 421/23/1 422/25/1 423/26/1 424/24/1
f 425/1/1 426/2/1 427/3/1 428/4/1
f 429/2/1 430/5/1 431/6/1 432/3/1
f 433/23/1 434/25/1 435/26/1 436/24/1
f 437/23/1 438/25/1 439/26/1 440/24/1
f 441/23/1 442/25/1 443/26/1 444/24/1
f 445/23/1 446/25/1 447/26/1 448/24/1
f 449/2/1 450/5/1 451/6/1 452/3/1
f 453/2/1 454/5/1 455/6/1 456/3/1
f 457/23/1 458/25/1 459/26/1 460/24/1
f 461/23/1 462/25/1 463/26/1 464/24/1
f 465/29/1 466/31/1 467/32/1 468/30/1
f 469/31/1 470/33/1 471/34/1 472/32/1
f 473/29/1 474/31/1 475/32/1 476/30/1
f 477/31/1 478/33/1 479/34/1 480/32/1
f 481/29/1 482/31/1 483/32/1 484/30/1
f 485/31/1 486/33/1 487/34/1 488/32/1
f 489/29/1 490/31/1 491/32/1 492/30/1
f 493/31/1 494/33/1 495/34/1 496/32/1
f 497/29/1 498/31/1 499/32/1 500/30/1
f 501/31/1 502/33/1 503/34/1 504/32/1
f 505/29/1 506/31/1 507/32/1 508/30/1
f 509/31/1 510/33/1 511/34/1 512/32/1
f 513/29/1 514/31/1 515/32/1 516/30/1
f 517/31/1 518/33/1 519/34/1 520/32/1
f 521/29/1 522/31/1 523/32/1 524/30/1
f 525/31/1 526/33/1 527/34/1 528/32/1
f 529/29/1 530/31/1 531/32/1 532/30/1
f 533/31/1 534/33/1 535/34/1 536/32/1
f 537/29/1 538/31/1 539/32/1 540/30/1
f 541/31/1 542/33/1 543/34/1 544/32/1
f 545/29/1 546/31/1 547/32/1 548/30/1
f 549/31/1 550/33/1 551/34/1 552/32/1
f 553/29/1 554/31/1 555/32/1 556/30/1
f 557/31/1 558/33/1 559/34/1 560/32/1
f 561/29/1 562/31/1 563/32/1 564/30/1
f 565/31/1 566/33/1 567/34/1 568/32/1
f 569/29/1 570/31/1 571/32/1 572/30/1
f 573/31/1 574/33/1 575/34/1 576/32/1
f 577/29/1 578/31/1 579/32/1 580/30/1
f 581/31/1 582/33/1 583/34/1 584/32/1
f 585/29/1 586/31/1 587/32/1 588/30/1
f 589/31/1 590/33/1 591/34/1 592/32/1
f 593/29/1 594/31/1 595/32/1 596/30/1
f 597/31/1 598/33/1 599/34/1 600/32/1
f 601/29/1 602/31/1 603/32/1 604/30/1
f 605/31/1 606/33/1 607/34/1 608/32/1
f 609/29/1 610/31/1 611/32/1 612/30/1
f 613/31/1 614/33/1 615/34/1 616/32/1
f 617/29/1 618/31/1 619/32/1 620/30/1
f 621/31/1 622/33/1 623/34/1 624/32/1
f 625/29/1 626/31/1 627/32/1 628/30/1
f 629/31/1 630/33/1 631/34/1 632/32/1
f 633/29/1 634/31/1 635/32/1 636/30/1
f 637/31/1 638/33/1 639/34/1 640/32/1
f 641/1/1 642/2/1 643/3/1 644/4/1
f 645/2/1 646/5/1 647/6/1 648/3/1
f 649/5/1 650/7/1 651/8/1 652/6/1
f 653/7/1 654/9/1 655/10/1 656/8/1
f 657/9/1 658/11/1 659/12/1 660/10/1
f 661/11/1 662/13/1 663/14/1 664/12/1
f 665/13/1 666/15/1 667/16/1 668/14/1
f 669/15/1 670/17/1 671/18/1 672/16/1
f 673/17/1 674/19/1 675/20/1 676/18/1
f 677/19/1 678/21/1 679/22/1 680/20/1
f 681/21/1 682/23/1 683/24/1 684/22/1
f 685/23/1 686/25/1 687/26/1 688/24/1
f 689/25/1 690/27/1 691/28/1 692/26/1
f 693/27/1 694/29/1 695/30/1 696/28/1
f 697/5/1 698/7/1 699/8/1 700/6/1
f 701/7/1 702/9/1 703/10/1 704/8/1
f 705/9/1 706/11/1 707/12/1 708/10/1
f 709/11/1 710/13/1 711/14/1 712/12/1
f 713/13/1 714/15/1 715/16/1 716/14/1
f 717/15/1 718/17/1 719/18/1 720/16/1
f 721/17/1 722/19/1 723/20/1 724/18/1
f 725/19/1 726/21/1 727/22/1 728/20/1
f 729/21/1 730/23/1 731/24/1 732/22/1
f 733/23/1 734/25/1 735/26/1 736/24/1
f 737/25/1 738/27/1 739/28/1 740/26/1
f 741/27/1 742/29/1 743/30/1 744/28/1
f 745/29/1 746/31/1 747/32/1 748/30/1
f 749/31/1 750/33/1 751/34/1 752/32/1
f 753/61/1 754/62/1 755/2/1 756/1/1
f 757/62/1 758/35/1 759/5/1 760/2/1
f 761/35/1 762/36/1 763/7/1 764/5/1
f 765/36/1 766/37/1 767/9/1 768/7/1
f 769/37/1 770/38/1 771/11/1 772/9/1
f 773/38/1 774/39/1 775/13/1 776/11/1
f 777/39/1 778/40/1 779/15/1 780/13/1
f 781/40/1 782/41/1 783/17/1 784/15/1
f 785/41/1 786/42/1 787/19/1 788/17/1
f 789/42/1 790/43/1 791/21/1 792/19/1
f 793/43/1 794/44/1 795/23/1 796/21/1
f 797/44/1 798/45/1 799/25/1 800/23/1
f 801/45/1 802/46/1 803/27/1 804/25/1
f 805/36/1 806/37/1 807/9/1 808/7/1
f 809/37/1 810/38/1 811/11/1 812/9/1
f 813/38/1 814/39/1 815/13/1 816/11/1
f 817/39/1 818/40/1 819/15/1 820/13/1
f 821/40/1 822/41/1 823/17/1 824/15/1
f 825/41/1 826/42/1 827/19/1 828/17/1
f 829/42/1 830/43/1 831/21/1 832/19/1
f 833/43/1 834/44/1 835/23/1 836/21/1
f 837/44/1 838/45/1 839/25/1 840/23/1
f 841/45/1 842/46/1 843/27/1 844/25/1
f 845/46/1 846/47/1 847/29/1 848/27/1
f 849/47/1 850/63/1 851/31/1 852/29/1
f 853/63/1 854/64/1 855/33/1 856/31/1
f 857/65/1 858/66/1 859/62/1 860/61/1
f 861/66/1 862/48/1 863/35/1 864/62/1
f 865/48/1 866/49/1 867/36/1 868/35/1
f 869/49/1 870/50/1 871/37/1 872/36/1
f 873/50/1 874/51/1 875/38/1 876/37/1
f 877/51/1 878/52/1 879/39/1 880/38/1
f 881/52/1 882/53/1 883/40/1 884/39/1
f 885/53/1 886/54/1 887/41/1 888/40/1
f 889/54/1 890/55/1 891/42/1 892/41/1
f 893/55/1 894/56/1 895/43/1 896/42/1
f 897/56/1 898/57/1 899/44/1 900/43/1
f 901/57/1 902/58/1 903/45/1 904/44/1
f 905/58/1 906/59/1 907/46/1 908/45/1
f 909/49/1 910/50/1 911/37/1 912/36/1
f 913/50/1 914/51/1 915/38/1 916/37/1
f 917/51/1 918/52/1 919/39/1 920/38/1
f 921/52/1 922/53/1 923/40/1 924/39/1
f 925/53/1 926/54/1 927/41/1 928/40/1
f 929/54/1 930/55/1 931/42/1 932/41/1
f 933/55/1 934/56/1 935/43/1 936/42/1
f 937/56/1 938/57/1 939/44/1 940/43/1
f 941/57/1 942/58/1 943/45/1 944/44/1
f 945/58/1 946/59/1 947/46/1 948/45/1
f 949/59/1 950/60/1 951/47/1 952/46/1
f 953/60/1 954/67/1 955/63/1 956/47/1
f 957/67/1 958/68/1 959/64/1 960/63/1

