# Tiled2Unity generated file. Do not modify by hand.
# Wavefront file for 'mapa1_mesh_0004.obj'

# Vertices (Count = 32)
v -34 -2 0
v -35 -2 0
v -35 -1 0
v -34 -1 0
v -34 -3 0
v -35 -3 0
v -35 -2 0
v -34 -2 0
v 0 -30 0
v -1 -30 0
v -1 -29 0
v 0 -29 0
v -62 -30 0
v -63 -30 0
v -63 -29 0
v -62 -29 0
v 0 -31 0
v -1 -31 0
v -1 -30 0
v 0 -30 0
v -62 -31 0
v -63 -31 0
v -63 -30 0
v -62 -30 0
v -34 -63 0
v -35 -63 0
v -35 -62 0
v -34 -62 0
v -34 -64 0
v -35 -64 0
v -35 -63 0
v -34 -63 0

# Texture cooridinates (Count = 6)
vt 0 0.5
vt 1 0.5
vt 1 1
vt 0 1
vt 0 0
vt 1 0

# Normal
vn 0 0 -1

# Mesh description
g mapa1_mesh_0004

# Faces
f 1/1/1 2/2/1 3/3/1 4/4/1
f 5/5/1 6/6/1 7/2/1 8/1/1
f 9/1/1 10/2/1 11/3/1 12/4/1
f 13/1/1 14/2/1 15/3/1 16/4/1
f 17/5/1 18/6/1 19/2/1 20/1/1
f 21/5/1 22/6/1 23/2/1 24/1/1
f 25/1/1 26/2/1 27/3/1 28/4/1
f 29/5/1 30/6/1 31/2/1 32/1/1

