# Tiled2Unity generated file. Do not modify by hand.
# Wavefront file for 'mapa32x32wariant3_mesh_0004.obj'

# Vertices (Count = 88)
v -13 -4 0
v -14 -4 0
v -14 -3 0
v -13 -3 0
v -19 -4 0
v -20 -4 0
v -20 -3 0
v -19 -3 0
v -13 -5 0
v -14 -5 0
v -14 -4 0
v -13 -4 0
v -19 -5 0
v -20 -5 0
v -20 -4 0
v -19 -4 0
v -4 -13 0
v -5 -13 0
v -5 -12 0
v -4 -12 0
v -13 -13 0
v -14 -13 0
v -14 -12 0
v -13 -12 0
v -22 -13 0
v -23 -13 0
v -23 -12 0
v -22 -12 0
v -31 -13 0
v -32 -13 0
v -32 -12 0
v -31 -12 0
v -4 -14 0
v -5 -14 0
v -5 -13 0
v -4 -13 0
v -13 -14 0
v -14 -14 0
v -14 -13 0
v -13 -13 0
v -22 -14 0
v -23 -14 0
v -23 -13 0
v -22 -13 0
v -31 -14 0
v -32 -14 0
v -32 -13 0
v -31 -13 0
v -4 -20 0
v -5 -20 0
v -5 -19 0
v -4 -19 0
v -22 -20 0
v -23 -20 0
v -23 -19 0
v -22 -19 0
v -4 -21 0
v -5 -21 0
v -5 -20 0
v -4 -20 0
v -22 -21 0
v -23 -21 0
v -23 -20 0
v -22 -20 0
v -13 -22 0
v -14 -22 0
v -14 -21 0
v -13 -21 0
v -19 -22 0
v -20 -22 0
v -20 -21 0
v -19 -21 0
v -13 -23 0
v -14 -23 0
v -14 -22 0
v -13 -22 0
v -19 -23 0
v -20 -23 0
v -20 -22 0
v -19 -22 0
v -13 -31 0
v -14 -31 0
v -14 -30 0
v -13 -30 0
v -13 -32 0
v -14 -32 0
v -14 -31 0
v -13 -31 0

# Texture cooridinates (Count = 6)
vt 0 0.5
vt 1 0.5
vt 1 1
vt 0 1
vt 0 0
vt 1 0

# Normal
vn 0 0 -1

# Mesh description
g mapa32x32wariant3_mesh_0004

# Faces
f 1/1/1 2/2/1 3/3/1 4/4/1
f 5/1/1 6/2/1 7/3/1 8/4/1
f 9/5/1 10/6/1 11/2/1 12/1/1
f 13/5/1 14/6/1 15/2/1 16/1/1
f 17/1/1 18/2/1 19/3/1 20/4/1
f 21/1/1 22/2/1 23/3/1 24/4/1
f 25/1/1 26/2/1 27/3/1 28/4/1
f 29/1/1 30/2/1 31/3/1 32/4/1
f 33/5/1 34/6/1 35/2/1 36/1/1
f 37/5/1 38/6/1 39/2/1 40/1/1
f 41/5/1 42/6/1 43/2/1 44/1/1
f 45/5/1 46/6/1 47/2/1 48/1/1
f 49/1/1 50/2/1 51/3/1 52/4/1
f 53/1/1 54/2/1 55/3/1 56/4/1
f 57/5/1 58/6/1 59/2/1 60/1/1
f 61/5/1 62/6/1 63/2/1 64/1/1
f 65/1/1 66/2/1 67/3/1 68/4/1
f 69/1/1 70/2/1 71/3/1 72/4/1
f 73/5/1 74/6/1 75/2/1 76/1/1
f 77/5/1 78/6/1 79/2/1 80/1/1
f 81/1/1 82/2/1 83/3/1 84/4/1
f 85/5/1 86/6/1 87/2/1 88/1/1

