# Tiled2Unity generated file. Do not modify by hand.
# Wavefront file for 'MapaLevel1_mesh_0002.obj'

# Vertices (Count = 120)
v -40 -21 0
v -41 -21 0
v -41 -20 0
v -40 -20 0
v -40 -22 0
v -41 -22 0
v -41 -21 0
v -40 -21 0
v -38 -37 0
v -39 -37 0
v -39 -36 0
v -38 -36 0
v -38 -38 0
v -39 -38 0
v -39 -37 0
v -38 -37 0
v -28 -41 0
v -29 -41 0
v -29 -40 0
v -28 -40 0
v -55 -41 0
v -56 -41 0
v -56 -40 0
v -55 -40 0
v -28 -42 0
v -29 -42 0
v -29 -41 0
v -28 -41 0
v -55 -42 0
v -56 -42 0
v -56 -41 0
v -55 -41 0
v -26 -55 0
v -27 -55 0
v -27 -54 0
v -26 -54 0
v -26 -56 0
v -27 -56 0
v -27 -55 0
v -26 -55 0
v -61 -59 0
v -62 -59 0
v -62 -58 0
v -61 -58 0
v -67 -59 0
v -68 -59 0
v -68 -58 0
v -67 -58 0
v -61 -60 0
v -62 -60 0
v -62 -59 0
v -61 -59 0
v -67 -60 0
v -68 -60 0
v -68 -59 0
v -67 -59 0
v -19 -61 0
v -20 -61 0
v -20 -60 0
v -19 -60 0
v -37 -61 0
v -38 -61 0
v -38 -60 0
v -37 -60 0
v -19 -62 0
v -20 -62 0
v -20 -61 0
v -19 -61 0
v -37 -62 0
v -38 -62 0
v -38 -61 0
v -37 -61 0
v -59 -65 0
v -60 -65 0
v -60 -64 0
v -59 -64 0
v -59 -66 0
v -60 -66 0
v -60 -65 0
v -59 -65 0
v -8 -75 0
v -9 -75 0
v -9 -74 0
v -8 -74 0
v -8 -76 0
v -9 -76 0
v -9 -75 0
v -8 -75 0
v -14 -76 0
v -15 -76 0
v -15 -75 0
v -14 -75 0
v -14 -77 0
v -15 -77 0
v -15 -76 0
v -14 -76 0
v -16 -82 0
v -17 -82 0
v -17 -81 0
v -16 -81 0
v -16 -83 0
v -17 -83 0
v -17 -82 0
v -16 -82 0
v -17 -83 0
v -18 -83 0
v -18 -82 0
v -17 -82 0
v -17 -84 0
v -18 -84 0
v -18 -83 0
v -17 -83 0
v -6 -85 0
v -7 -85 0
v -7 -84 0
v -6 -84 0
v -6 -86 0
v -7 -86 0
v -7 -85 0
v -6 -85 0

# Texture cooridinates (Count = 6)
vt 0 0.5
vt 1 0.5
vt 1 1
vt 0 1
vt 0 0
vt 1 0

# Normal
vn 0 0 -1

# Mesh description
g MapaLevel1_mesh_0002

# Faces
f 1/1/1 2/2/1 3/3/1 4/4/1
f 5/5/1 6/6/1 7/2/1 8/1/1
f 9/1/1 10/2/1 11/3/1 12/4/1
f 13/5/1 14/6/1 15/2/1 16/1/1
f 17/1/1 18/2/1 19/3/1 20/4/1
f 21/1/1 22/2/1 23/3/1 24/4/1
f 25/5/1 26/6/1 27/2/1 28/1/1
f 29/5/1 30/6/1 31/2/1 32/1/1
f 33/1/1 34/2/1 35/3/1 36/4/1
f 37/5/1 38/6/1 39/2/1 40/1/1
f 41/1/1 42/2/1 43/3/1 44/4/1
f 45/1/1 46/2/1 47/3/1 48/4/1
f 49/5/1 50/6/1 51/2/1 52/1/1
f 53/5/1 54/6/1 55/2/1 56/1/1
f 57/1/1 58/2/1 59/3/1 60/4/1
f 61/1/1 62/2/1 63/3/1 64/4/1
f 65/5/1 66/6/1 67/2/1 68/1/1
f 69/5/1 70/6/1 71/2/1 72/1/1
f 73/1/1 74/2/1 75/3/1 76/4/1
f 77/5/1 78/6/1 79/2/1 80/1/1
f 81/1/1 82/2/1 83/3/1 84/4/1
f 85/5/1 86/6/1 87/2/1 88/1/1
f 89/1/1 90/2/1 91/3/1 92/4/1
f 93/5/1 94/6/1 95/2/1 96/1/1
f 97/1/1 98/2/1 99/3/1 100/4/1
f 101/5/1 102/6/1 103/2/1 104/1/1
f 105/1/1 106/2/1 107/3/1 108/4/1
f 109/5/1 110/6/1 111/2/1 112/1/1
f 113/1/1 114/2/1 115/3/1 116/4/1
f 117/5/1 118/6/1 119/2/1 120/1/1

