# Tiled2Unity generated file. Do not modify by hand.
# Wavefront file for 'MapaLevel1_mesh_0003.obj'

# Vertices (Count = 104)
v -66 -21 0
v -67 -21 0
v -67 -20 0
v -66 -20 0
v -66 -22 0
v -67 -22 0
v -67 -21 0
v -66 -21 0
v -68 -37 0
v -69 -37 0
v -69 -36 0
v -68 -36 0
v -68 -38 0
v -69 -38 0
v -69 -37 0
v -68 -37 0
v -51 -41 0
v -52 -41 0
v -52 -40 0
v -51 -40 0
v -51 -42 0
v -52 -42 0
v -52 -41 0
v -51 -41 0
v -31 -55 0
v -32 -55 0
v -32 -54 0
v -31 -54 0
v -75 -55 0
v -76 -55 0
v -76 -54 0
v -75 -54 0
v -31 -56 0
v -32 -56 0
v -32 -55 0
v -31 -55 0
v -75 -56 0
v -76 -56 0
v -76 -55 0
v -75 -55 0
v -63 -59 0
v -64 -59 0
v -64 -58 0
v -63 -58 0
v -69 -59 0
v -70 -59 0
v -70 -58 0
v -69 -58 0
v -63 -60 0
v -64 -60 0
v -64 -59 0
v -63 -59 0
v -69 -60 0
v -70 -60 0
v -70 -59 0
v -69 -59 0
v -33 -61 0
v -34 -61 0
v -34 -60 0
v -33 -60 0
v -33 -62 0
v -34 -62 0
v -34 -61 0
v -33 -61 0
v -71 -65 0
v -72 -65 0
v -72 -64 0
v -71 -64 0
v -71 -66 0
v -72 -66 0
v -72 -65 0
v -71 -65 0
v -13 -75 0
v -14 -75 0
v -14 -74 0
v -13 -74 0
v -13 -76 0
v -14 -76 0
v -14 -75 0
v -13 -75 0
v -18 -76 0
v -19 -76 0
v -19 -75 0
v -18 -75 0
v -18 -77 0
v -19 -77 0
v -19 -76 0
v -18 -76 0
v -56 -83 0
v -57 -83 0
v -57 -82 0
v -56 -82 0
v -56 -84 0
v -57 -84 0
v -57 -83 0
v -56 -83 0
v -15 -85 0
v -16 -85 0
v -16 -84 0
v -15 -84 0
v -15 -86 0
v -16 -86 0
v -16 -85 0
v -15 -85 0

# Texture cooridinates (Count = 6)
vt 0 0.5
vt 1 0.5
vt 1 1
vt 0 1
vt 0 0
vt 1 0

# Normal
vn 0 0 -1

# Mesh description
g MapaLevel1_mesh_0003

# Faces
f 1/1/1 2/2/1 3/3/1 4/4/1
f 5/5/1 6/6/1 7/2/1 8/1/1
f 9/1/1 10/2/1 11/3/1 12/4/1
f 13/5/1 14/6/1 15/2/1 16/1/1
f 17/1/1 18/2/1 19/3/1 20/4/1
f 21/5/1 22/6/1 23/2/1 24/1/1
f 25/1/1 26/2/1 27/3/1 28/4/1
f 29/1/1 30/2/1 31/3/1 32/4/1
f 33/5/1 34/6/1 35/2/1 36/1/1
f 37/5/1 38/6/1 39/2/1 40/1/1
f 41/1/1 42/2/1 43/3/1 44/4/1
f 45/1/1 46/2/1 47/3/1 48/4/1
f 49/5/1 50/6/1 51/2/1 52/1/1
f 53/5/1 54/6/1 55/2/1 56/1/1
f 57/1/1 58/2/1 59/3/1 60/4/1
f 61/5/1 62/6/1 63/2/1 64/1/1
f 65/1/1 66/2/1 67/3/1 68/4/1
f 69/5/1 70/6/1 71/2/1 72/1/1
f 73/1/1 74/2/1 75/3/1 76/4/1
f 77/5/1 78/6/1 79/2/1 80/1/1
f 81/1/1 82/2/1 83/3/1 84/4/1
f 85/5/1 86/6/1 87/2/1 88/1/1
f 89/1/1 90/2/1 91/3/1 92/4/1
f 93/5/1 94/6/1 95/2/1 96/1/1
f 97/1/1 98/2/1 99/3/1 100/4/1
f 101/5/1 102/6/1 103/2/1 104/1/1

