# Tiled2Unity generated file. Do not modify by hand.
# Wavefront file for 'mapa32x62_mesh_0003.obj'

# Vertices (Count = 48)
v -13 -2 0
v -14 -2 0
v -14 -1 0
v -13 -1 0
v -43 -2 0
v -44 -2 0
v -44 -1 0
v -43 -1 0
v -13 -3 0
v -14 -3 0
v -14 -2 0
v -13 -2 0
v -43 -3 0
v -44 -3 0
v -44 -2 0
v -43 -2 0
v -1 -13 0
v -2 -13 0
v -2 -12 0
v -1 -12 0
v -61 -13 0
v -62 -13 0
v -62 -12 0
v -61 -12 0
v -1 -14 0
v -2 -14 0
v -2 -13 0
v -1 -13 0
v -61 -14 0
v -62 -14 0
v -62 -13 0
v -61 -13 0
v -13 -31 0
v -14 -31 0
v -14 -30 0
v -13 -30 0
v -43 -31 0
v -44 -31 0
v -44 -30 0
v -43 -30 0
v -13 -32 0
v -14 -32 0
v -14 -31 0
v -13 -31 0
v -43 -32 0
v -44 -32 0
v -44 -31 0
v -43 -31 0

# Texture cooridinates (Count = 6)
vt 0 0.5
vt 1 0.5
vt 1 1
vt 0 1
vt 0 0
vt 1 0

# Normal
vn 0 0 -1

# Mesh description
g mapa32x62_mesh_0003

# Faces
f 1/1/1 2/2/1 3/3/1 4/4/1
f 5/1/1 6/2/1 7/3/1 8/4/1
f 9/5/1 10/6/1 11/2/1 12/1/1
f 13/5/1 14/6/1 15/2/1 16/1/1
f 17/1/1 18/2/1 19/3/1 20/4/1
f 21/1/1 22/2/1 23/3/1 24/4/1
f 25/5/1 26/6/1 27/2/1 28/1/1
f 29/5/1 30/6/1 31/2/1 32/1/1
f 33/1/1 34/2/1 35/3/1 36/4/1
f 37/1/1 38/2/1 39/3/1 40/4/1
f 41/5/1 42/6/1 43/2/1 44/1/1
f 45/5/1 46/6/1 47/2/1 48/1/1

