# Tiled2Unity generated file. Do not modify by hand.
# Wavefront file for 'mapa32x32wariant4_mesh_0003.obj'

# Vertices (Count = 48)
v -13 -2 0
v -14 -2 0
v -14 -1 0
v -13 -1 0
v -13 -3 0
v -14 -3 0
v -14 -2 0
v -13 -2 0
v -1 -13 0
v -2 -13 0
v -2 -12 0
v -1 -12 0
v -7 -13 0
v -8 -13 0
v -8 -12 0
v -7 -12 0
v -31 -13 0
v -32 -13 0
v -32 -12 0
v -31 -12 0
v -1 -14 0
v -2 -14 0
v -2 -13 0
v -1 -13 0
v -7 -14 0
v -8 -14 0
v -8 -13 0
v -7 -13 0
v -31 -14 0
v -32 -14 0
v -32 -13 0
v -31 -13 0
v -25 -20 0
v -26 -20 0
v -26 -19 0
v -25 -19 0
v -25 -21 0
v -26 -21 0
v -26 -20 0
v -25 -20 0
v -13 -31 0
v -14 -31 0
v -14 -30 0
v -13 -30 0
v -13 -32 0
v -14 -32 0
v -14 -31 0
v -13 -31 0

# Texture cooridinates (Count = 6)
vt 0 0.5
vt 1 0.5
vt 1 1
vt 0 1
vt 0 0
vt 1 0

# Normal
vn 0 0 -1

# Mesh description
g mapa32x32wariant4_mesh_0003

# Faces
f 1/1/1 2/2/1 3/3/1 4/4/1
f 5/5/1 6/6/1 7/2/1 8/1/1
f 9/1/1 10/2/1 11/3/1 12/4/1
f 13/1/1 14/2/1 15/3/1 16/4/1
f 17/1/1 18/2/1 19/3/1 20/4/1
f 21/5/1 22/6/1 23/2/1 24/1/1
f 25/5/1 26/6/1 27/2/1 28/1/1
f 29/5/1 30/6/1 31/2/1 32/1/1
f 33/1/1 34/2/1 35/3/1 36/4/1
f 37/5/1 38/6/1 39/2/1 40/1/1
f 41/1/1 42/2/1 43/3/1 44/4/1
f 45/5/1 46/6/1 47/2/1 48/1/1

