# Tiled2Unity generated file. Do not modify by hand.
# Wavefront file for 'mapa32x32wariant5_mesh_0003.obj'

# Vertices (Count = 56)
v 0 -13 0
v -1 -13 0
v -1 -12 0
v 0 -12 0
v -12 -13 0
v -13 -13 0
v -13 -12 0
v -12 -12 0
v -18 -13 0
v -19 -13 0
v -19 -12 0
v -18 -12 0
v -27 -13 0
v -28 -13 0
v -28 -12 0
v -27 -12 0
v -30 -13 0
v -31 -13 0
v -31 -12 0
v -30 -12 0
v 0 -14 0
v -1 -14 0
v -1 -13 0
v 0 -13 0
v -12 -14 0
v -13 -14 0
v -13 -13 0
v -12 -13 0
v -18 -14 0
v -19 -14 0
v -19 -13 0
v -18 -13 0
v -27 -14 0
v -28 -14 0
v -28 -13 0
v -27 -13 0
v -30 -14 0
v -31 -14 0
v -31 -13 0
v -30 -13 0
v -18 -22 0
v -19 -22 0
v -19 -21 0
v -18 -21 0
v -18 -23 0
v -19 -23 0
v -19 -22 0
v -18 -22 0
v -18 -31 0
v -19 -31 0
v -19 -30 0
v -18 -30 0
v -18 -32 0
v -19 -32 0
v -19 -31 0
v -18 -31 0

# Texture cooridinates (Count = 6)
vt 0 0.5
vt 1 0.5
vt 1 1
vt 0 1
vt 0 0
vt 1 0

# Normal
vn 0 0 -1

# Mesh description
g mapa32x32wariant5_mesh_0003

# Faces
f 1/1/1 2/2/1 3/3/1 4/4/1
f 5/1/1 6/2/1 7/3/1 8/4/1
f 9/1/1 10/2/1 11/3/1 12/4/1
f 13/1/1 14/2/1 15/3/1 16/4/1
f 17/1/1 18/2/1 19/3/1 20/4/1
f 21/5/1 22/6/1 23/2/1 24/1/1
f 25/5/1 26/6/1 27/2/1 28/1/1
f 29/5/1 30/6/1 31/2/1 32/1/1
f 33/5/1 34/6/1 35/2/1 36/1/1
f 37/5/1 38/6/1 39/2/1 40/1/1
f 41/1/1 42/2/1 43/3/1 44/4/1
f 45/5/1 46/6/1 47/2/1 48/1/1
f 49/1/1 50/2/1 51/3/1 52/4/1
f 53/5/1 54/6/1 55/2/1 56/1/1

