# Tiled2Unity generated file. Do not modify by hand.
# Wavefront file for 'mapa62x61_mesh_0004.obj'

# Vertices (Count = 64)
v -18 -2 0
v -19 -2 0
v -19 -1 0
v -18 -1 0
v -48 -2 0
v -49 -2 0
v -49 -1 0
v -48 -1 0
v -18 -3 0
v -19 -3 0
v -19 -2 0
v -18 -2 0
v -48 -3 0
v -49 -3 0
v -49 -2 0
v -48 -2 0
v 0 -13 0
v -1 -13 0
v -1 -12 0
v 0 -12 0
v -60 -13 0
v -61 -13 0
v -61 -12 0
v -60 -12 0
v 0 -14 0
v -1 -14 0
v -1 -13 0
v 0 -13 0
v -60 -14 0
v -61 -14 0
v -61 -13 0
v -60 -13 0
v 0 -42 0
v -1 -42 0
v -1 -41 0
v 0 -41 0
v -60 -42 0
v -61 -42 0
v -61 -41 0
v -60 -41 0
v 0 -43 0
v -1 -43 0
v -1 -42 0
v 0 -42 0
v -60 -43 0
v -61 -43 0
v -61 -42 0
v -60 -42 0
v -18 -60 0
v -19 -60 0
v -19 -59 0
v -18 -59 0
v -48 -60 0
v -49 -60 0
v -49 -59 0
v -48 -59 0
v -18 -61 0
v -19 -61 0
v -19 -60 0
v -18 -60 0
v -48 -61 0
v -49 -61 0
v -49 -60 0
v -48 -60 0

# Texture cooridinates (Count = 6)
vt 0 0.5
vt 1 0.5
vt 1 1
vt 0 1
vt 0 0
vt 1 0

# Normal
vn 0 0 -1

# Mesh description
g mapa62x61_mesh_0004

# Faces
f 1/1/1 2/2/1 3/3/1 4/4/1
f 5/1/1 6/2/1 7/3/1 8/4/1
f 9/5/1 10/6/1 11/2/1 12/1/1
f 13/5/1 14/6/1 15/2/1 16/1/1
f 17/1/1 18/2/1 19/3/1 20/4/1
f 21/1/1 22/2/1 23/3/1 24/4/1
f 25/5/1 26/6/1 27/2/1 28/1/1
f 29/5/1 30/6/1 31/2/1 32/1/1
f 33/1/1 34/2/1 35/3/1 36/4/1
f 37/1/1 38/2/1 39/3/1 40/4/1
f 41/5/1 42/6/1 43/2/1 44/1/1
f 45/5/1 46/6/1 47/2/1 48/1/1
f 49/1/1 50/2/1 51/3/1 52/4/1
f 53/1/1 54/2/1 55/3/1 56/4/1
f 57/5/1 58/6/1 59/2/1 60/1/1
f 61/5/1 62/6/1 63/2/1 64/1/1

